<mxfile host="Electron" modified="2024-05-28T19:59:14.823Z" agent="Mozilla/5.0 (Windows NT 10.0; Win64; x64) AppleWebKit/537.36 (KHTML, like Gecko) draw.io/24.4.8 Chrome/124.0.6367.207 Electron/30.0.6 Safari/537.36" etag="EQV-FalhlbIk1hTkT_hu" version="24.4.8" type="device">
  <diagram name="Страница — 1" id="JFn2mtWqg-edfEXCA0IU">
    <mxGraphModel dx="1434" dy="844" grid="1" gridSize="10" guides="1" tooltips="1" connect="1" arrows="1" fold="1" page="1" pageScale="1" pageWidth="827" pageHeight="1169" math="0" shadow="0">
      <root>
        <mxCell id="0" />
        <mxCell id="1" parent="0" />
        <mxCell id="V_bHWCbdmvV1VqaD9BiT-12" value="" style="edgeStyle=orthogonalEdgeStyle;rounded=0;orthogonalLoop=1;jettySize=auto;html=1;" edge="1" parent="1" source="V_bHWCbdmvV1VqaD9BiT-1" target="V_bHWCbdmvV1VqaD9BiT-4">
          <mxGeometry relative="1" as="geometry" />
        </mxCell>
        <mxCell id="V_bHWCbdmvV1VqaD9BiT-1" value="&lt;font style=&quot;font-size: 16px;&quot;&gt;BIT (class files)&lt;/font&gt;" style="rounded=0;whiteSpace=wrap;html=1;" vertex="1" parent="1">
          <mxGeometry x="40" y="160" width="160" height="80" as="geometry" />
        </mxCell>
        <mxCell id="V_bHWCbdmvV1VqaD9BiT-10" value="" style="edgeStyle=orthogonalEdgeStyle;rounded=0;orthogonalLoop=1;jettySize=auto;html=1;" edge="1" parent="1" source="V_bHWCbdmvV1VqaD9BiT-2" target="V_bHWCbdmvV1VqaD9BiT-4">
          <mxGeometry relative="1" as="geometry" />
        </mxCell>
        <mxCell id="V_bHWCbdmvV1VqaD9BiT-2" value="&lt;font style=&quot;font-size: 16px;&quot;&gt;User Program (class files)&lt;/font&gt;" style="rounded=0;whiteSpace=wrap;html=1;" vertex="1" parent="1">
          <mxGeometry x="240" y="40" width="160" height="80" as="geometry" />
        </mxCell>
        <mxCell id="V_bHWCbdmvV1VqaD9BiT-15" value="" style="edgeStyle=orthogonalEdgeStyle;rounded=0;orthogonalLoop=1;jettySize=auto;html=1;" edge="1" parent="1" source="V_bHWCbdmvV1VqaD9BiT-3" target="V_bHWCbdmvV1VqaD9BiT-7">
          <mxGeometry relative="1" as="geometry" />
        </mxCell>
        <mxCell id="V_bHWCbdmvV1VqaD9BiT-16" value="" style="edgeStyle=orthogonalEdgeStyle;rounded=0;orthogonalLoop=1;jettySize=auto;html=1;" edge="1" parent="1" source="V_bHWCbdmvV1VqaD9BiT-3" target="V_bHWCbdmvV1VqaD9BiT-8">
          <mxGeometry relative="1" as="geometry" />
        </mxCell>
        <mxCell id="V_bHWCbdmvV1VqaD9BiT-3" value="&lt;font style=&quot;font-size: 16px;&quot;&gt;Instrumented User Program (class files)&lt;/font&gt;" style="rounded=0;whiteSpace=wrap;html=1;" vertex="1" parent="1">
          <mxGeometry x="440" y="160" width="160" height="80" as="geometry" />
        </mxCell>
        <mxCell id="V_bHWCbdmvV1VqaD9BiT-13" value="" style="edgeStyle=orthogonalEdgeStyle;rounded=0;orthogonalLoop=1;jettySize=auto;html=1;" edge="1" parent="1" source="V_bHWCbdmvV1VqaD9BiT-4" target="V_bHWCbdmvV1VqaD9BiT-3">
          <mxGeometry relative="1" as="geometry" />
        </mxCell>
        <mxCell id="V_bHWCbdmvV1VqaD9BiT-4" value="&lt;font style=&quot;font-size: 16px;&quot;&gt;Instrumentation Code (class file)&lt;/font&gt;" style="rounded=0;whiteSpace=wrap;html=1;" vertex="1" parent="1">
          <mxGeometry x="240" y="160" width="160" height="80" as="geometry" />
        </mxCell>
        <mxCell id="V_bHWCbdmvV1VqaD9BiT-11" value="" style="edgeStyle=orthogonalEdgeStyle;rounded=0;orthogonalLoop=1;jettySize=auto;html=1;" edge="1" parent="1" source="V_bHWCbdmvV1VqaD9BiT-5" target="V_bHWCbdmvV1VqaD9BiT-4">
          <mxGeometry relative="1" as="geometry" />
        </mxCell>
        <mxCell id="V_bHWCbdmvV1VqaD9BiT-5" value="&lt;font style=&quot;font-size: 16px;&quot;&gt;Analysis Code (class files)&lt;/font&gt;" style="rounded=0;whiteSpace=wrap;html=1;" vertex="1" parent="1">
          <mxGeometry x="240" y="280" width="160" height="80" as="geometry" />
        </mxCell>
        <mxCell id="V_bHWCbdmvV1VqaD9BiT-9" value="" style="edgeStyle=orthogonalEdgeStyle;rounded=0;orthogonalLoop=1;jettySize=auto;html=1;" edge="1" parent="1" source="V_bHWCbdmvV1VqaD9BiT-6" target="V_bHWCbdmvV1VqaD9BiT-3">
          <mxGeometry relative="1" as="geometry" />
        </mxCell>
        <mxCell id="V_bHWCbdmvV1VqaD9BiT-6" value="&lt;span style=&quot;font-size: 16px;&quot;&gt;User Program Data&lt;/span&gt;" style="ellipse;whiteSpace=wrap;html=1;" vertex="1" parent="1">
          <mxGeometry x="440" y="40" width="160" height="80" as="geometry" />
        </mxCell>
        <mxCell id="V_bHWCbdmvV1VqaD9BiT-7" value="&lt;font style=&quot;font-size: 16px;&quot;&gt;Analysis Output&lt;/font&gt;" style="ellipse;whiteSpace=wrap;html=1;" vertex="1" parent="1">
          <mxGeometry x="640" y="160" width="160" height="80" as="geometry" />
        </mxCell>
        <mxCell id="V_bHWCbdmvV1VqaD9BiT-8" value="&lt;font style=&quot;font-size: 16px;&quot;&gt;User Program Output&lt;/font&gt;" style="ellipse;whiteSpace=wrap;html=1;" vertex="1" parent="1">
          <mxGeometry x="440" y="280" width="160" height="80" as="geometry" />
        </mxCell>
      </root>
    </mxGraphModel>
  </diagram>
</mxfile>
